<svg xmlns="http://www.w3.org/2000/svg" viewBox="0 0 512 512"><rect width="512" height="512" rx="96" fill="#F5F2E9"/><rect x="38" y="38" width="436" height="436" rx="64" fill="none" stroke="#2B2A28" stroke-width="22"/><g transform="translate(79.1,310.6)"><path d="M48.56-34.30L43.73-44.74L83.09-81.69Q87.30-85.66 88.70-88.66Q90.11-91.66 89.21-93.81Q88.31-95.95 85.51-97.20L83.25-98.21Q81.22-99.15 80.25-100.47Q79.27-101.80 79.27-103.82Q79.27-106.32 80.91-107.72Q82.54-109.12 85.97-109.12L120.35-109.12Q123.78-109.12 125.41-107.72Q127.05-106.32 127.05-103.82Q127.05-101.72 125.84-100.55Q124.64-99.38 121.21-97.90Q120.11-97.43 118.91-96.69Q117.70-95.95 115.59-94.28Q113.49-92.60 109.83-89.36Q106.16-86.13 100.08-80.67L48.56-34.30M80.28-18.24L59.08-54.41L86.91-77.48L122.76-17.62Q124.64-14.50 126.08-13.29Q127.52-12.08 129-11.54Q131.10-10.44 132-8.85Q132.90-7.25 132.90-5.30Q132.90-2.88 131.26-1.44Q129.62 0 126.19 0L82.15 0Q78.73 0 77.09-1.44Q75.45-2.88 75.45-5.38Q75.45-7.40 76.39-8.81Q77.32-10.21 78.80-10.76L80.83-11.54Q82.23-12.08 82.19-13.56Q82.15-15.04 80.28-18.24M54.09-91.82L54.09-17.30Q54.09-15.36 54.83-14.19Q55.58-13.02 57.29-12.16L59.47-11.07Q61.89-9.90 62.71-8.61Q63.53-7.33 63.53-5.30Q63.53-2.88 61.89-1.44Q60.25 0 56.82 0L13.64 0Q10.21 0 8.57-1.44Q6.94-2.88 6.94-5.30Q6.94-9.51 10.99-11.07L13.95-12.16Q15.98-12.94 16.95-14.15Q17.93-15.36 17.93-17.30L17.93-91.82Q17.93-93.77 16.95-94.98Q15.98-96.19 13.95-96.96L10.99-98.06Q6.94-99.61 6.94-103.82Q6.94-106.32 8.57-107.72Q10.21-109.12 13.64-109.12L58.38-109.12Q61.81-109.12 63.45-107.72Q65.08-106.32 65.08-103.82Q65.08-99.61 61.03-98.06L58.07-96.96Q56.12-96.19 55.11-94.98Q54.09-93.77 54.09-91.82M184.19-38.43L155.35-26.35L150.05-30.40L164.39-37.73Q172.88-42.09 178.81-47.78Q184.73-53.47 187.81-61.11Q190.89-68.75 190.89-78.88Q190.89-88.23 189.84-93.81Q188.78-99.38 186.80-101.88Q184.81-104.37 182-104.37Q178.11-104.37 176.51-100.78Q174.91-97.20 174.91-90.88L174.91-80.05Q174.91-72.88 170.51-68.59Q166.10-64.31 158.23-64.31Q150.83-64.31 146.42-68.90Q142.02-73.50 142.02-81.84Q142.02-89.79 146.66-96.73Q151.29-103.67 160.96-107.96Q170.62-112.24 185.67-112.24Q200.55-112.24 210.06-108.11Q219.57-103.98 224.13-96.69Q228.69-89.40 228.69-80.05Q228.69-71.79 224.02-64.77Q219.34-57.76 209.48-51.33Q199.62-44.90 184.19-38.43M139.60-14.03Q139.60-23.23 146.77-28.72Q153.94-34.22 167.58-34.22Q173.74-34.22 179.20-33.48Q184.65-32.74 189.88-31.80Q195.10-30.87 200.55-30.13Q206.01-29.39 212.09-29.39Q217.31-29.39 220.55-31.37Q223.78-33.36 226.43-37.65Q227.68-39.67 229.12-40.45Q230.56-41.23 232.28-41.08Q234.31-40.92 235.36-39.17Q236.41-37.41 236.10-33.59Q235.08-20.34 231.42-12.28Q227.76-4.21 221.72-0.55Q215.68 3.12 207.49 3.12Q200.94 3.12 196.07 1.29Q191.20-0.55 187.73-4.75Q184.26-8.96 181.77-16.13Q180.52-19.95 179.47-21.12Q178.42-22.29 176.70-22.29Q174.83-22.29 173.59-20.54Q172.34-18.78 171.95-14.81Q171.40-8.18 169.14-4.25Q166.88-0.31 163.10 1.40Q159.32 3.12 154.10 3.12Q147.79 3.12 143.69-1.52Q139.60-6.16 139.60-14.03M346.94-31.26Q346.94-25.10 343.70-19.02Q340.47-12.94 334.39-7.91Q328.31-2.88 319.73 0.12Q311.16 3.12 300.40 3.12Q282.94 3.12 270.20-4.17Q257.46-11.46 250.52-24.36Q243.58-37.26 243.58-54.02Q243.58-66.57 247.71-77.17Q251.84-87.77 259.29-95.64Q266.73-103.51 276.67-107.88Q286.61-112.24 298.14-112.24Q305.39-112.24 309.87-110.99Q314.36-109.75 317.08-108.46Q319.81-107.18 321.76-107.18Q324.02-107.18 325.46-108.38Q326.91-109.59 328.43-110.76Q329.94-111.93 332.28-111.93Q334.23-111.93 335.52-110.68Q336.80-109.44 337.66-106.47L345.69-78.88Q346.39-76.46 345.11-74.56Q343.82-72.65 341.40-72.02Q338.75-71.40 336.57-72.37Q334.39-73.35 333.22-76.08Q329.24-85.43 324.49-90.61Q319.73-95.80 314.55-97.86Q309.37-99.93 303.99-99.93Q298.30-99.93 293.82-97.20Q289.34-94.47 286.22-89.33Q283.10-84.18 281.46-76.89Q279.83-69.61 279.83-60.49Q279.83-45.60 283.80-35.66Q287.78-25.72 294.83-20.77Q301.88-15.82 311.16-15.82Q319.27-15.82 326.05-19.99Q332.83-24.16 337.27-32.27Q338.60-34.76 340.16-35.54Q341.71-36.32 343.59-35.93Q345.38-35.62 346.16-34.41Q346.94-33.20 346.94-31.26" fill="#2B2A28"/></g></svg>